<svg width="24" height="22" viewBox="0 0 24 22" fill="none" xmlns="http://www.w3.org/2000/svg">
<path d="M18.0109 12.1H13.4141V16.5H11.1157V12.1H6.51892V9.9H11.1157V5.5H13.4141V9.9H18.0109M12.2649 0C10.7557 0 9.26138 0.284523 7.86711 0.837325C6.47285 1.39013 5.20599 2.20038 4.13886 3.22183C1.9837 5.28473 0.772949 8.08262 0.772949 11C0.772949 13.9174 1.9837 16.7153 4.13886 18.7782C5.20599 19.7996 6.47285 20.6099 7.86711 21.1627C9.26138 21.7155 10.7557 22 12.2649 22C15.3127 22 18.2358 20.8411 20.3909 18.7782C22.5461 16.7153 23.7568 13.9174 23.7568 11C23.7568 9.55546 23.4596 8.12506 22.8821 6.79048C22.3045 5.4559 21.458 4.24327 20.3909 3.22183C19.3238 2.20038 18.0569 1.39013 16.6627 0.837325C15.2684 0.284523 13.774 0 12.2649 0Z" fill="#0E7490"/>
</svg>
